<?xml version="1.0" encoding="utf-8"?>
<!-- Generator: Adobe Illustrator 28.3.0, SVG Export Plug-In . SVG Version: 6.00 Build 0)  -->
<svg version="1.1" id="レイヤー_1" xmlns="http://www.w3.org/2000/svg" xmlns:xlink="http://www.w3.org/1999/xlink" x="0px"
	 y="0px" viewBox="0 0 998.82 998.15" style="enable-background:new 0 0 998.82 998.15;" xml:space="preserve">
<style type="text/css">
	.st0{fill:#FFFFFF;}
	.st1{fill:url(#SVGID_1_);}
	.st2{stroke:#231815;stroke-width:0.25;stroke-miterlimit:10;}
	
		.st3{fill:url(#SVGID_00000092436530974654729150000002196019217499628717_);stroke:#231815;stroke-width:0.25;stroke-miterlimit:10;}
	.st4{fill:url(#SVGID_00000052078162515428619000000017604589179187982755_);}
</style>
<linearGradient id="SVGID_1_" gradientUnits="userSpaceOnUse" x1="118.616" y1="118.2816" x2="906.9955" y2="906.6613">
	<stop  offset="0" style="stop-color:#84CFF3"/>
	<stop  offset="1" style="stop-color:#005991"/>
</linearGradient>
<path class="st1" d="M776.57,998.15H222.26C99.51,998.15,0,898.65,0,775.9V222.26C0,99.51,99.51,0,222.26,0h554.31
	c122.75,0,222.26,99.51,222.26,222.26V775.9C998.82,898.65,899.32,998.15,776.57,998.15z"/>
<g>
	<path class="st0" d="M796.43,379.29L568.26,198.01c-34.73-27.59-83.91-27.59-118.64,0L221.46,379.29
		c-25.45,20.22-40.28,50.95-40.28,83.45v261.09c0,42.44,34.4,76.84,76.84,76.84h501.86c42.44,0,76.84-34.4,76.84-76.84V462.74
		C836.71,430.23,821.88,399.51,796.43,379.29z M659.27,654.16c0,10.02-10.85,16.29-19.53,11.27l-130.8-75.52l-130.8,75.52
		c-8.68,5.01-19.53-1.25-19.53-11.27V488.79c0-10.02,10.85-16.29,19.53-11.27l130.8,75.52l130.8-75.52
		c8.68-5.01,19.53,1.25,19.53,11.27V654.16z"/>
	<path class="st0" d="M831.66,227.53h-38.27v-38.27c0-2.79-2.26-5.05-5.05-5.05H750.8c-2.79,0-5.05,2.26-5.05,5.05v38.27h-38.27
		c-2.79,0-5.05,2.26-5.05,5.05v37.54c0,2.79,2.26,5.05,5.05,5.05h38.27v38.27c0,2.79,2.26,5.05,5.05,5.05h37.54
		c2.79,0,5.05-2.26,5.05-5.05v-38.27h38.27c2.79,0,5.05-2.26,5.05-5.05v-37.54C836.71,229.8,834.45,227.53,831.66,227.53z"/>
</g>
</svg>
