<?xml version="1.0" encoding="utf-8"?>
<!-- Generator: Adobe Illustrator 28.3.0, SVG Export Plug-In . SVG Version: 6.00 Build 0)  -->
<svg version="1.1" id="レイヤー_1" xmlns="http://www.w3.org/2000/svg" xmlns:xlink="http://www.w3.org/1999/xlink" x="0px"
	 y="0px" viewBox="0 0 2200 480" style="enable-background:new 0 0 2200 480;" xml:space="preserve">
<g>
	<g>
		<path d="M163.26,65.24h-17.73c-28.17,0-51.01,22.84-51.01,51.01v10.44c0,26.38,7.22,52.26,20.87,74.84l54.98,90.9
			c11.11,18.37,16.98,39.43,16.98,60.89v10.43c0,13.31-10.79,24.1-24.1,24.1h-17.72c-13.31,0-24.1-10.79-24.1-24.1v-25.6
			c0-8.56-5.07-16.31-12.92-19.74l-13.99-6.1v51.45c0,28.17,22.84,51.01,51.01,51.01h17.73c28.18,0,51.02-22.84,51.02-51.02v-10.43
			c0-26.38-7.22-52.26-20.87-74.84l-54.98-90.9c-11.11-18.37-16.98-39.43-16.98-60.89v-10.44c0-13.3,10.78-24.09,24.09-24.09h17.73
			c13.31,0,24.1,10.79,24.1,24.1v51.44l13.79-6.01c7.98-3.48,13.13-11.35,13.13-20.06v-25.37
			C214.28,88.08,191.43,65.24,163.26,65.24z"/>
		<path d="M479.58,65.24c-5.55,0-10.53,3.4-12.54,8.57l-44.69,114.55L377.66,73.81c-2.01-5.17-6.99-8.57-12.54-8.57h-4.36
			c-7.43,0-13.46,0-13.46,0v347.77h26.92V139.08l20.63,52.88l0,0l13.78,35.32c2.79,7.14,9.67,11.85,17.34,11.85h5.47l8.02-20.55
			c0,0,0,0,0,0l31.01-79.49v255.46c0,10.2,8.27,18.47,18.47,18.47h8.45V65.24c0,0-6.03,0-13.46,0H479.58z"/>
		<path d="M1486.27,83.02v256.14l-34.36-88.05h-18.33c-5.55,0-10.52,3.4-12.54,8.57l-31.01,79.48V65.24h-10.59
			c-9.02,0-16.33,7.31-16.33,16.33v331.44h27l48.04-123.11l48.03,123.11h27.01V65.24h-9.14
			C1494.23,65.24,1486.27,73.2,1486.27,83.02z"/>
		<path d="M700.77,65.24h-2.02c-13.85,0-25.7,9.94-28.11,23.57L613.3,413.01h27.34l52.79-298.47l49.71,281
			c1.79,10.1,10.57,17.47,20.83,17.47h9.61L712.07,65.24C712.07,65.24,707.3,65.24,700.77,65.24z"/>
		<path d="M962.16,65.24h-55.98c-7.43,0-13.46,0-13.46,0v347.77h26.92V232.26h42.51c10.61,0,19.29,8.68,19.29,19.29V390.9
			c0,12.21,9.9,22.11,22.11,22.11h4.81V251.54c0-12.81-5.21-24.39-13.63-32.76c8.41-8.37,13.63-19.95,13.63-32.73v-74.6
			C1008.37,85.97,987.64,65.24,962.16,65.24z M919.64,205.34V92.16h42.52c10.63,0,19.28,8.66,19.28,19.29v74.6
			c0,10.63-8.66,19.28-19.28,19.28H919.64z"/>
		<path d="M1112.12,75.19c0,9.37,7.6,16.97,16.97,16.97h43.15v320.85h26.92V92.16h60.12V65.24h-147.16V75.19z"/>
		<path d="M1915.37,65.24H1786v6.44c0,11.23,9.11,20.34,20.34,20.34h89.13L1773.5,394.64c-1.66,4.13-1.15,8.8,1.34,12.49
			c2.51,3.68,6.68,5.89,11.15,5.89h106.68c12.53,0,22.69-10.16,22.69-22.69v-4.09H1805.9l121.97-302.61
			c1.66-4.13,1.15-8.8-1.35-12.49C1924.02,67.44,1919.84,65.24,1915.37,65.24z"/>
		<path d="M1632.92,82.79v330.21h26.92V65.24h-9.37C1640.78,65.24,1632.92,73.1,1632.92,82.79z"/>
		<path d="M2146.14,125.36h-60.12V65.24h-26.92v60.12h-60.12v9.95c0,9.37,7.6,16.97,16.97,16.97h43.15v60.12h26.92v-60.12h60.12
			V125.36z"/>
	</g>
	<g>
		<path d="M2046.22,400.12l10.09-21.07h4.17v33.81h-4.21v-24.79l-8.23,17.74h-3.77l-8.08-17.59v24.64h-4.21v-33.81h4.12
			L2046.22,400.12z"/>
		<path d="M2027.94,379.05v3.82h-10.29v29.99h-4.21v-29.99h-10.29v-3.82H2027.94z"/>
	</g>
</g>
</svg>
